<svg xmlns="http://www.w3.org/2000/svg" aria-hidden="true" style="position:absolute;width:0;height:0;overflow:hidden">
  <defs>
    <symbol id="icon-logo" viewBox="0 0 32 32">
      <path d="M26.789 22.205c-.788-.335-1.469-.623-1.824-.801-1.448-.724-4.141-2.071-5.632-2.071-1.343 0-2.082 0-4.828.686a8.623 8.623 0 0 1-2.11.277c-.651 0-1.191-.081-1.714-.161-.46-.069-.894-.135-1.348-.135-.712 0-1.239.41-1.343 1.043-.155.959.743 2.349 2.465 2.923.667.223 1.325.33 2.013.33.623 0 1.185-.089 1.681-.167.374-.059.729-.116 1.065-.126-.031.011-.061.022-.092.031-1.052.351-2.4.754-3.48.754-.304 0-.571-.031-.792-.095l-.715-.205c-4.069-1.161-5.44-1.553-7.171-2.418-.459-.229-.897-.347-1.298-.347-1.083.001-1.667.83-1.667 1.61 0 .827 1.021 1.59 4.368 3.263 1.333.665 2.709 1.354 4.754 2.037C10.555 29.11 13.224 30 15.332 30c1.579 0 3.311-.818 4.839-1.541 1.225-.579 2.383-1.126 3.161-1.126 1.018 0 2.506 1.298 3.49 2.156.936.817 1.369 1.177 1.843 1.177 1.363 0 3.333-4.716 3.333-5.333 0-.765-.876-1.293-5.211-3.129zm1.826 7.042a14.887 14.887 0 0 1-.915-.763C26.497 27.436 24.851 26 23.333 26c-1.078 0-2.367.609-3.731 1.254-1.469.695-2.989 1.413-4.269 1.413-1.892 0-4.427-.845-5.789-1.299-1.955-.651-3.23-1.289-4.579-1.963-2.121-1.06-3.339-1.784-3.623-2.153.026-.101.108-.194.324-.194.133 0 .362.035.701.206 1.841.921 3.243 1.32 7.401 2.508l.713.203c.342.097.732.147 1.159.147h.001c1.265 0 2.682-.415 3.902-.821.475-.159 2.014-.751 1.855-1.729-.145-.905-1.441-.905-2.065-.905-.475 0-.941.074-1.392.146-.96.151-2.029.234-3.064-.112-1.03-.343-1.517-1.068-1.569-1.367h.024c.353 0 .722.056 1.149.121.545.082 1.163.175 1.913.175.786 0 1.582-.103 2.433-.316 2.588-.647 3.189-.647 4.506-.647 1.176 0 3.88 1.352 5.035 1.93.393.197 1.092.492 1.901.836 1.235.523 3.706 1.57 4.357 2.063-.245.826-1.44 3.122-2.011 3.752zM9.333 17.333c2.206 0 4-1.794 4-4 0-1.284-.695-2.68-1.501-4.297-.676-1.355-1.441-2.891-1.851-4.531L9.334 1.92l-.647 2.585c-.41 1.641-1.176 3.177-1.851 4.534-.806 1.615-1.501 3.01-1.501 4.294 0 2.206 1.794 4 4 4zm-1.306-7.7c.435-.871.905-1.814 1.306-2.825.401 1.011.871 1.953 1.305 2.824.73 1.466 1.361 2.732 1.361 3.702 0 1.47-1.197 2.667-2.667 2.667s-2.667-1.197-2.667-2.667c0-.97.631-2.235 1.361-3.701z"/>
    </symbol>
    <symbol id="icon-instagram" viewBox="0 0 32 32">
      <path d="M16 2.881c4.275 0 4.781.019 6.462.094 1.563.069 2.406.331 2.969.55a4.952 4.952 0 0 1 1.837 1.194 5.015 5.015 0 0 1 1.2 1.838c.219.563.481 1.412.55 2.969.075 1.688.094 2.194.094 6.463s-.019 4.781-.094 6.463c-.069 1.563-.331 2.406-.55 2.969a4.94 4.94 0 0 1-1.194 1.837 5.02 5.02 0 0 1-1.837 1.2c-.563.219-1.413.481-2.969.55-1.688.075-2.194.094-6.463.094s-4.781-.019-6.463-.094c-1.563-.069-2.406-.331-2.969-.55a4.952 4.952 0 0 1-1.838-1.194 5.02 5.02 0 0 1-1.2-1.837c-.219-.563-.481-1.413-.55-2.969-.075-1.688-.094-2.194-.094-6.463s.019-4.781.094-6.463c.069-1.563.331-2.406.55-2.969a4.964 4.964 0 0 1 1.194-1.838 5.015 5.015 0 0 1 1.838-1.2c.563-.219 1.412-.481 2.969-.55 1.681-.075 2.188-.094 6.463-.094zM16 0c-4.344 0-4.887.019-6.594.094-1.7.075-2.869.35-3.881.744-1.056.412-1.95.956-2.837 1.85a7.833 7.833 0 0 0-1.85 2.831C.444 6.538.169 7.7.094 9.4.019 11.113 0 11.656 0 16s.019 4.887.094 6.594c.075 1.7.35 2.869.744 3.881.413 1.056.956 1.95 1.85 2.837a7.82 7.82 0 0 0 2.831 1.844c1.019.394 2.181.669 3.881.744 1.706.075 2.25.094 6.594.094s4.888-.019 6.594-.094c1.7-.075 2.869-.35 3.881-.744 1.05-.406 1.944-.956 2.831-1.844s1.438-1.781 1.844-2.831c.394-1.019.669-2.181.744-3.881.075-1.706.094-2.25.094-6.594s-.019-4.887-.094-6.594c-.075-1.7-.35-2.869-.744-3.881a7.506 7.506 0 0 0-1.831-2.844A7.82 7.82 0 0 0 26.482.843C25.463.449 24.301.174 22.601.099c-1.712-.081-2.256-.1-6.6-.1z"/>
      <path d="M16 7.781c-4.537 0-8.219 3.681-8.219 8.219s3.681 8.219 8.219 8.219 8.219-3.681 8.219-8.219A8.221 8.221 0 0 0 16 7.781zm0 13.55a5.331 5.331 0 1 1 0-10.663 5.331 5.331 0 0 1 0 10.663zM26.462 7.456a1.919 1.919 0 1 1-3.838 0 1.919 1.919 0 0 1 3.838 0z"/>
    </symbol>
  </defs>
</svg>
